<mxfile host="app.diagrams.net" modified="2020-12-02T09:46:14.964Z" agent="5.0 (Macintosh; Intel Mac OS X 10_15_7) AppleWebKit/537.36 (KHTML, like Gecko) Chrome/86.0.4240.111 Safari/537.36" etag="b65EbsgnMImVmFd4Akto" version="13.10.5" type="github">
  <diagram id="oZhiOCSuTlxGMlmQ8ZLH" name="Page-1">
    <mxGraphModel dx="706" dy="1809" grid="1" gridSize="10" guides="1" tooltips="1" connect="1" arrows="1" fold="1" page="1" pageScale="1" pageWidth="827" pageHeight="1169" math="0" shadow="0">
      <root>
        <mxCell id="0" />
        <mxCell id="1" parent="0" />
        <mxCell id="o3Aa6Rd4mgTVj8HlteAl-1" value="" style="endArrow=classic;html=1;exitX=0.5;exitY=1;exitDx=0;exitDy=0;entryX=0.5;entryY=0;entryDx=0;entryDy=0;" edge="1" parent="1" source="o3Aa6Rd4mgTVj8HlteAl-2">
          <mxGeometry width="50" height="50" relative="1" as="geometry">
            <mxPoint x="394" y="90" as="sourcePoint" />
            <mxPoint x="394" y="110" as="targetPoint" />
          </mxGeometry>
        </mxCell>
        <mxCell id="o3Aa6Rd4mgTVj8HlteAl-2" value="&lt;font face=&quot;helvetica&quot;&gt;1.注册设备成功&lt;/font&gt;" style="rounded=1;whiteSpace=wrap;html=1;fillColor=#dae8fc;strokeColor=#6c8ebf;" vertex="1" parent="1">
          <mxGeometry x="334" y="30" width="120" height="60" as="geometry" />
        </mxCell>
        <mxCell id="o3Aa6Rd4mgTVj8HlteAl-3" value="是" style="text;html=1;strokeColor=none;fillColor=none;align=center;verticalAlign=middle;whiteSpace=wrap;rounded=0;" vertex="1" parent="1">
          <mxGeometry x="404" y="180" width="40" height="20" as="geometry" />
        </mxCell>
        <mxCell id="o3Aa6Rd4mgTVj8HlteAl-4" style="edgeStyle=orthogonalEdgeStyle;rounded=0;orthogonalLoop=1;jettySize=auto;html=1;exitX=0;exitY=0.5;exitDx=0;exitDy=0;entryX=1;entryY=0.5;entryDx=0;entryDy=0;" edge="1" parent="1" source="o3Aa6Rd4mgTVj8HlteAl-5" target="o3Aa6Rd4mgTVj8HlteAl-7">
          <mxGeometry relative="1" as="geometry" />
        </mxCell>
        <mxCell id="o3Aa6Rd4mgTVj8HlteAl-5" value="需要个性化推送能力" style="rhombus;whiteSpace=wrap;html=1;fillColor=#f5f5f5;strokeColor=#666666;fontColor=#333333;" vertex="1" parent="1">
          <mxGeometry x="324" y="110" width="140" height="60" as="geometry" />
        </mxCell>
        <mxCell id="o3Aa6Rd4mgTVj8HlteAl-6" value="" style="edgeStyle=orthogonalEdgeStyle;rounded=0;orthogonalLoop=1;jettySize=auto;html=1;exitX=0.5;exitY=1;exitDx=0;exitDy=0;" edge="1" parent="1" source="o3Aa6Rd4mgTVj8HlteAl-5">
          <mxGeometry relative="1" as="geometry">
            <mxPoint x="404" y="280" as="sourcePoint" />
            <mxPoint x="394" y="210" as="targetPoint" />
          </mxGeometry>
        </mxCell>
        <mxCell id="o3Aa6Rd4mgTVj8HlteAl-7" value="&lt;font face=&quot;helvetica&quot;&gt;流程结束&lt;br&gt;&lt;/font&gt;" style="rounded=1;whiteSpace=wrap;html=1;fillColor=#e1d5e7;strokeColor=#9673a6;" vertex="1" parent="1">
          <mxGeometry x="139" y="110" width="120" height="60" as="geometry" />
        </mxCell>
        <mxCell id="o3Aa6Rd4mgTVj8HlteAl-8" value="否" style="text;html=1;strokeColor=none;fillColor=none;align=center;verticalAlign=middle;whiteSpace=wrap;rounded=0;" vertex="1" parent="1">
          <mxGeometry x="284" y="120" width="40" height="20" as="geometry" />
        </mxCell>
        <mxCell id="o3Aa6Rd4mgTVj8HlteAl-9" style="edgeStyle=orthogonalEdgeStyle;rounded=0;orthogonalLoop=1;jettySize=auto;html=1;exitX=0.5;exitY=1;exitDx=0;exitDy=0;entryX=0.5;entryY=0;entryDx=0;entryDy=0;" edge="1" parent="1" source="o3Aa6Rd4mgTVj8HlteAl-10" target="o3Aa6Rd4mgTVj8HlteAl-13">
          <mxGeometry relative="1" as="geometry" />
        </mxCell>
        <mxCell id="o3Aa6Rd4mgTVj8HlteAl-10" value="&lt;font face=&quot;helvetica&quot;&gt;2.App获取要绑定的用户属性列表(例如“昵称”)&lt;/font&gt;" style="rounded=0;whiteSpace=wrap;html=1;fillColor=#f5f5f5;strokeColor=#666666;fontColor=#333333;" vertex="1" parent="1">
          <mxGeometry x="334" y="210" width="120" height="60" as="geometry" />
        </mxCell>
        <mxCell id="o3Aa6Rd4mgTVj8HlteAl-11" style="edgeStyle=orthogonalEdgeStyle;rounded=0;orthogonalLoop=1;jettySize=auto;html=1;exitX=0;exitY=0.5;exitDx=0;exitDy=0;entryX=0.5;entryY=1;entryDx=0;entryDy=0;" edge="1" parent="1" source="o3Aa6Rd4mgTVj8HlteAl-13" target="o3Aa6Rd4mgTVj8HlteAl-7">
          <mxGeometry relative="1" as="geometry">
            <mxPoint x="269" y="330" as="targetPoint" />
          </mxGeometry>
        </mxCell>
        <mxCell id="o3Aa6Rd4mgTVj8HlteAl-12" style="edgeStyle=orthogonalEdgeStyle;rounded=0;orthogonalLoop=1;jettySize=auto;html=1;exitX=0.5;exitY=1;exitDx=0;exitDy=0;entryX=0.5;entryY=0;entryDx=0;entryDy=0;" edge="1" parent="1" source="o3Aa6Rd4mgTVj8HlteAl-13" target="o3Aa6Rd4mgTVj8HlteAl-17">
          <mxGeometry relative="1" as="geometry" />
        </mxCell>
        <mxCell id="o3Aa6Rd4mgTVj8HlteAl-13" value="是否获取成功" style="rhombus;whiteSpace=wrap;html=1;fillColor=#f5f5f5;strokeColor=#666666;fontColor=#333333;" vertex="1" parent="1">
          <mxGeometry x="324" y="310" width="140" height="60" as="geometry" />
        </mxCell>
        <mxCell id="o3Aa6Rd4mgTVj8HlteAl-14" value="否" style="text;html=1;strokeColor=none;fillColor=none;align=center;verticalAlign=middle;whiteSpace=wrap;rounded=0;" vertex="1" parent="1">
          <mxGeometry x="284" y="310" width="40" height="20" as="geometry" />
        </mxCell>
        <mxCell id="o3Aa6Rd4mgTVj8HlteAl-15" style="edgeStyle=orthogonalEdgeStyle;rounded=0;orthogonalLoop=1;jettySize=auto;html=1;exitX=0.5;exitY=1;exitDx=0;exitDy=0;entryX=0.5;entryY=0;entryDx=0;entryDy=0;" edge="1" parent="1" source="o3Aa6Rd4mgTVj8HlteAl-17" target="o3Aa6Rd4mgTVj8HlteAl-20">
          <mxGeometry relative="1" as="geometry" />
        </mxCell>
        <mxCell id="o3Aa6Rd4mgTVj8HlteAl-16" style="edgeStyle=orthogonalEdgeStyle;rounded=0;orthogonalLoop=1;jettySize=auto;html=1;exitX=0;exitY=0.5;exitDx=0;exitDy=0;entryX=0.5;entryY=0;entryDx=0;entryDy=0;" edge="1" parent="1" source="o3Aa6Rd4mgTVj8HlteAl-17" target="o3Aa6Rd4mgTVj8HlteAl-25">
          <mxGeometry relative="1" as="geometry" />
        </mxCell>
        <mxCell id="o3Aa6Rd4mgTVj8HlteAl-17" value="历史绑定的属性需要关心推送" style="rhombus;whiteSpace=wrap;html=1;fillColor=#f5f5f5;strokeColor=#666666;fontColor=#333333;" vertex="1" parent="1">
          <mxGeometry x="289" y="410" width="210" height="60" as="geometry" />
        </mxCell>
        <mxCell id="o3Aa6Rd4mgTVj8HlteAl-18" value="是" style="text;html=1;strokeColor=none;fillColor=none;align=center;verticalAlign=middle;whiteSpace=wrap;rounded=0;" vertex="1" parent="1">
          <mxGeometry x="404" y="380" width="40" height="20" as="geometry" />
        </mxCell>
        <mxCell id="o3Aa6Rd4mgTVj8HlteAl-19" style="edgeStyle=orthogonalEdgeStyle;rounded=0;orthogonalLoop=1;jettySize=auto;html=1;exitX=0.5;exitY=1;exitDx=0;exitDy=0;entryX=0.5;entryY=0;entryDx=0;entryDy=0;" edge="1" parent="1" source="o3Aa6Rd4mgTVj8HlteAl-20" target="o3Aa6Rd4mgTVj8HlteAl-22">
          <mxGeometry relative="1" as="geometry" />
        </mxCell>
        <mxCell id="o3Aa6Rd4mgTVj8HlteAl-20" value="&lt;font color=&quot;#ea6b66&quot;&gt;&lt;font face=&quot;helvetica&quot;&gt;3.按需调用，解绑历史属性:&amp;nbsp;&lt;/font&gt;&lt;span style=&quot;font-family: &amp;#34;helvetica&amp;#34;&quot;&gt;del&lt;/span&gt;&lt;font face=&quot;helvetica&quot;&gt;Attributes, 例如解绑&quot;年龄&quot;属性&lt;/font&gt;&lt;/font&gt;" style="rounded=0;whiteSpace=wrap;html=1;fillColor=#fff2cc;strokeColor=#d6b656;" vertex="1" parent="1">
          <mxGeometry x="334" y="510" width="120" height="60" as="geometry" />
        </mxCell>
        <mxCell id="o3Aa6Rd4mgTVj8HlteAl-21" style="edgeStyle=orthogonalEdgeStyle;rounded=0;orthogonalLoop=1;jettySize=auto;html=1;exitX=0.5;exitY=1;exitDx=0;exitDy=0;entryX=0.5;entryY=0;entryDx=0;entryDy=0;" edge="1" parent="1" source="o3Aa6Rd4mgTVj8HlteAl-22" target="o3Aa6Rd4mgTVj8HlteAl-29">
          <mxGeometry relative="1" as="geometry" />
        </mxCell>
        <mxCell id="o3Aa6Rd4mgTVj8HlteAl-22" value="&lt;font face=&quot;helvetica&quot; color=&quot;#ea6b66&quot;&gt;5.绑定新属性列表：&lt;br&gt;调用upsertAttributes例如绑定&quot;昵称&quot;属性&lt;/font&gt;" style="rounded=0;whiteSpace=wrap;html=1;fillColor=#fff2cc;strokeColor=#d6b656;align=left;" vertex="1" parent="1">
          <mxGeometry x="334" y="610" width="120" height="60" as="geometry" />
        </mxCell>
        <mxCell id="o3Aa6Rd4mgTVj8HlteAl-23" value="是" style="text;html=1;strokeColor=none;fillColor=none;align=center;verticalAlign=middle;whiteSpace=wrap;rounded=0;" vertex="1" parent="1">
          <mxGeometry x="404" y="480" width="40" height="20" as="geometry" />
        </mxCell>
        <mxCell id="o3Aa6Rd4mgTVj8HlteAl-24" style="edgeStyle=orthogonalEdgeStyle;rounded=0;orthogonalLoop=1;jettySize=auto;html=1;exitX=0.5;exitY=1;exitDx=0;exitDy=0;entryX=0;entryY=0.5;entryDx=0;entryDy=0;" edge="1" parent="1" source="o3Aa6Rd4mgTVj8HlteAl-25" target="o3Aa6Rd4mgTVj8HlteAl-29">
          <mxGeometry relative="1" as="geometry" />
        </mxCell>
        <mxCell id="o3Aa6Rd4mgTVj8HlteAl-25" value="&lt;font face=&quot;helvetica&quot; color=&quot;#ea6b66&quot;&gt;4.清空历史属性并绑定新属性:clearAndAppendAttributes&lt;/font&gt;" style="rounded=0;whiteSpace=wrap;html=1;fillColor=#fff2cc;strokeColor=#d6b656;align=left;" vertex="1" parent="1">
          <mxGeometry x="134" y="510" width="165" height="60" as="geometry" />
        </mxCell>
        <mxCell id="o3Aa6Rd4mgTVj8HlteAl-26" value="否" style="text;html=1;strokeColor=none;fillColor=none;align=center;verticalAlign=middle;whiteSpace=wrap;rounded=0;" vertex="1" parent="1">
          <mxGeometry x="234" y="410" width="40" height="20" as="geometry" />
        </mxCell>
        <mxCell id="o3Aa6Rd4mgTVj8HlteAl-27" style="edgeStyle=orthogonalEdgeStyle;rounded=0;orthogonalLoop=1;jettySize=auto;html=1;exitX=1;exitY=0.5;exitDx=0;exitDy=0;entryX=0;entryY=0.5;entryDx=0;entryDy=0;" edge="1" parent="1" source="o3Aa6Rd4mgTVj8HlteAl-29" target="o3Aa6Rd4mgTVj8HlteAl-32">
          <mxGeometry relative="1" as="geometry" />
        </mxCell>
        <mxCell id="o3Aa6Rd4mgTVj8HlteAl-28" style="edgeStyle=orthogonalEdgeStyle;rounded=0;orthogonalLoop=1;jettySize=auto;html=1;exitX=0.5;exitY=1;exitDx=0;exitDy=0;entryX=0.5;entryY=0;entryDx=0;entryDy=0;" edge="1" parent="1" source="o3Aa6Rd4mgTVj8HlteAl-29" target="o3Aa6Rd4mgTVj8HlteAl-37">
          <mxGeometry relative="1" as="geometry" />
        </mxCell>
        <mxCell id="o3Aa6Rd4mgTVj8HlteAl-29" value="&lt;font face=&quot;helvetica&quot;&gt;6.用户正常使用App&lt;br&gt;&lt;/font&gt;" style="rounded=0;whiteSpace=wrap;html=1;fillColor=#f5f5f5;strokeColor=#666666;fontColor=#333333;" vertex="1" parent="1">
          <mxGeometry x="334" y="710" width="120" height="60" as="geometry" />
        </mxCell>
        <mxCell id="o3Aa6Rd4mgTVj8HlteAl-30" style="edgeStyle=orthogonalEdgeStyle;rounded=0;orthogonalLoop=1;jettySize=auto;html=1;exitX=0.5;exitY=0;exitDx=0;exitDy=0;entryX=1;entryY=0.5;entryDx=0;entryDy=0;" edge="1" parent="1" source="o3Aa6Rd4mgTVj8HlteAl-32" target="o3Aa6Rd4mgTVj8HlteAl-17">
          <mxGeometry relative="1" as="geometry" />
        </mxCell>
        <mxCell id="o3Aa6Rd4mgTVj8HlteAl-31" style="edgeStyle=orthogonalEdgeStyle;rounded=0;orthogonalLoop=1;jettySize=auto;html=1;exitX=0.5;exitY=1;exitDx=0;exitDy=0;entryX=1;entryY=0.75;entryDx=0;entryDy=0;" edge="1" parent="1" source="o3Aa6Rd4mgTVj8HlteAl-32" target="o3Aa6Rd4mgTVj8HlteAl-29">
          <mxGeometry relative="1" as="geometry" />
        </mxCell>
        <mxCell id="o3Aa6Rd4mgTVj8HlteAl-32" value="需要变更绑定的属性列表" style="rhombus;whiteSpace=wrap;html=1;fillColor=#f5f5f5;strokeColor=#666666;fontColor=#333333;" vertex="1" parent="1">
          <mxGeometry x="517" y="710" width="177" height="60" as="geometry" />
        </mxCell>
        <mxCell id="o3Aa6Rd4mgTVj8HlteAl-33" value="是" style="text;html=1;strokeColor=none;fillColor=none;align=center;verticalAlign=middle;whiteSpace=wrap;rounded=0;" vertex="1" parent="1">
          <mxGeometry x="604" y="680" width="40" height="20" as="geometry" />
        </mxCell>
        <mxCell id="o3Aa6Rd4mgTVj8HlteAl-34" value="否" style="text;html=1;strokeColor=none;fillColor=none;align=center;verticalAlign=middle;whiteSpace=wrap;rounded=0;" vertex="1" parent="1">
          <mxGeometry x="604" y="770" width="40" height="20" as="geometry" />
        </mxCell>
        <mxCell id="o3Aa6Rd4mgTVj8HlteAl-35" style="edgeStyle=orthogonalEdgeStyle;rounded=0;orthogonalLoop=1;jettySize=auto;html=1;exitX=0.5;exitY=1;exitDx=0;exitDy=0;entryX=0.5;entryY=0;entryDx=0;entryDy=0;" edge="1" parent="1" source="o3Aa6Rd4mgTVj8HlteAl-37" target="o3Aa6Rd4mgTVj8HlteAl-38">
          <mxGeometry relative="1" as="geometry" />
        </mxCell>
        <mxCell id="o3Aa6Rd4mgTVj8HlteAl-36" style="edgeStyle=orthogonalEdgeStyle;rounded=0;orthogonalLoop=1;jettySize=auto;html=1;exitX=0;exitY=0.5;exitDx=0;exitDy=0;entryX=0;entryY=0.75;entryDx=0;entryDy=0;" edge="1" parent="1" source="o3Aa6Rd4mgTVj8HlteAl-37" target="o3Aa6Rd4mgTVj8HlteAl-29">
          <mxGeometry relative="1" as="geometry" />
        </mxCell>
        <mxCell id="o3Aa6Rd4mgTVj8HlteAl-37" value="完全关闭个性化推送能力" style="rhombus;whiteSpace=wrap;html=1;fillColor=#f5f5f5;strokeColor=#666666;fontColor=#333333;" vertex="1" parent="1">
          <mxGeometry x="305.5" y="810" width="177" height="60" as="geometry" />
        </mxCell>
        <mxCell id="o3Aa6Rd4mgTVj8HlteAl-38" value="&lt;font face=&quot;helvetica&quot;&gt;&lt;font color=&quot;#ea6b66&quot;&gt;7.调用清空属性:clearAttributes&lt;/font&gt;&lt;br&gt;&lt;/font&gt;" style="rounded=0;whiteSpace=wrap;html=1;fillColor=#fff2cc;strokeColor=#d6b656;" vertex="1" parent="1">
          <mxGeometry x="334" y="910" width="120" height="60" as="geometry" />
        </mxCell>
        <mxCell id="o3Aa6Rd4mgTVj8HlteAl-39" value="是" style="text;html=1;strokeColor=none;fillColor=none;align=center;verticalAlign=middle;whiteSpace=wrap;rounded=0;" vertex="1" parent="1">
          <mxGeometry x="399" y="880" width="40" height="20" as="geometry" />
        </mxCell>
        <mxCell id="o3Aa6Rd4mgTVj8HlteAl-40" value="否" style="text;html=1;strokeColor=none;fillColor=none;align=center;verticalAlign=middle;whiteSpace=wrap;rounded=0;" vertex="1" parent="1">
          <mxGeometry x="244" y="780" width="40" height="20" as="geometry" />
        </mxCell>
        <mxCell id="o3Aa6Rd4mgTVj8HlteAl-41" value="&lt;h1&gt;备注&lt;/h1&gt;&lt;p&gt;&lt;span style=&quot;color: rgb(51 , 51 , 51) ; text-align: center&quot;&gt;支持的用户属性需要到 Web 管理台或者 RestAPI 先进行配置&lt;/span&gt;&lt;br&gt;&lt;/p&gt;" style="text;html=1;strokeColor=#82b366;spacing=5;spacingTop=-20;whiteSpace=wrap;overflow=hidden;rounded=0;fillColor=#d5e8d4;" vertex="1" parent="1">
          <mxGeometry x="134" y="1000" width="540" height="120" as="geometry" />
        </mxCell>
      </root>
    </mxGraphModel>
  </diagram>
</mxfile>
